<svg xmlns="http://www.w3.org/2000/svg" viewBox="0 0 181.33 123.65"><defs><style>.cls-1{fill:#e5e5e5;}</style></defs><g id="Layer_2" data-name="Layer 2"><g id="_2_logo" data-name="2 logo"><g id="horizontal_colored" data-name="horizontal colored"><polygon class="cls-1" points="84.05 80.62 84.12 80.17 83.86 79.34 83.35 79.08 82.83 80.24 82.9 81.84 82.96 83.12 82.83 84.53 82.83 91.21 82.77 92.36 82.9 93.52 82.96 94.48 82.83 95.83 82.77 97.94 82.7 100 82.83 101.09 82.83 102.88 82.96 103.65 82.77 104.1 82.77 105.26 82.64 106.73 82.77 108.14 82.7 109.3 82.83 110.52 82.7 111.99 82.96 113.28 83.47 113.85 83.73 113.72 83.92 113.34 83.99 112.5 83.99 111.29 83.92 110.07 83.99 108.85 84.05 106.8 83.92 104.74 83.99 103.07 83.99 94.61 84.18 93 84.12 91.91 84.12 90.31 84.25 88.64 84.05 87.23 84.05 86.91 84.25 85.75 84.31 83.7 84.31 82.55 84.12 81.13 84.05 80.62"/><path class="cls-1" d="M115.58,68.7H73a6.21,6.21,0,0,0-6.2,6.2v42.55a6.2,6.2,0,0,0,6.2,6.2h42.56a6.2,6.2,0,0,0,6.2-6.2V74.9A6.21,6.21,0,0,0,115.58,68.7Zm-14.21,9.48-1,.58-1-.19-1.67.19-1.79-.06-1.8.06H91.49l-.51.45v3.91l-.06,1.16v3.46l-.26,2V96.4l1.54.45,1.41-.06h4.3l1.86.25.77,1.42.06,1.22-.57,1.6-.9.26-.9-.07H91.05l-.33.32-.06,1.61v9.68l1.22.32,1.15.07h5.84l1.86.58.19,1.92v1.48l-.51.38-1.28-.13H98l-1.73.19L95,118l-1-.13-.9.13-1.41-.07H90l-.84.07-1.28-.13-1.15.06-1.16.13-2-.06-1.22-.19-1.48.19-1.34-.26H78.09l-1.42-.45-.44-1.73-.07-1.35.07-2.18.19-1.73-.07-1.48-.06-1.09V106.6l-.06-.83.12-1.16-.12-1.54.12-1.09-.12-1.47.12-1.93-.06-1.41.19-.83V79.53l-.06-2.44-.26-1.6.9-1.09,2-.13H89.18l1.87.06,1.47-.06h1.54l2.25-.06,1.34.06h2.12l1.15.19.65.58.25,1.41Z"/><polygon class="cls-1" points="33.09 79.85 31.04 80.43 30.2 80.82 29.69 81.01 28.15 81.78 25.97 83.45 24.24 84.92 23.34 86.14 22.12 88.06 21.22 89.99 20.58 91.85 20.32 93.13 20.07 95.89 20.13 98.01 20.64 99.93 21.41 102.63 22.63 104.68 23.66 106.28 24.43 107.05 26.35 108.79 28.86 110.39 30.72 111.29 31.48 111.42 33.02 111.99 35.01 112.38 35.85 112.12 35.46 111.35 33.86 110.9 32.77 110.65 31.68 110.26 29.88 109.43 28.15 108.4 26.29 106.99 25.39 106.16 24.56 105.26 23.79 104.3 22.76 102.69 22.38 102.05 22.05 100.89 21.61 98.33 21.48 96.92 21.29 95.12 21.67 93.33 21.86 92.36 21.99 91.4 22.44 90.63 22.95 89.28 24.04 87.42 24.81 86.33 25.71 85.37 26.67 84.54 28.6 83.19 29.5 82.48 29.95 82.42 31.48 81.65 33.99 80.88 35.01 80.17 35.21 79.79 34.88 79.53 33.09 79.85"/><path class="cls-1" d="M55.92,68.7H13.37a6.2,6.2,0,0,0-6.2,6.2v42.55a6.19,6.19,0,0,0,6.2,6.2H55.92a6.2,6.2,0,0,0,6.2-6.2V74.9A6.21,6.21,0,0,0,55.92,68.7ZM40.53,85.11V86.2l-1,.45-2.38.26-1.34.26-2.63.89-1.16.65L31,89.54l-.9,1-1,1.35-.51,1.79-.39,2.76.13,1.22.77,2.38.64,1,.77,1,1,.77L33.67,104l1.15.38,1.28.26,2.19.32,1.47.13.51.83.07,2.06.06,2.69-.06,2.44v3.78l-.19.71-1.35.7L36,118.22l-3-.2-1.34-.19-1.29-.26-1.28-.38-2.5-1-1.16-.58L24.3,115l-1.09-.71-2-1.47-.9-.77-.77-.9-1.41-1.93-.7-1.09-1.29-2-.51-1L15.25,104l-.77-2.63L14,98.84V94.48l.13-1.41.19-1.35.32-1.41.84-2.5.45-1.16,1.15-2.18.64-1.09,1.09-1.47,1.29-1.48,1-1L23,77.93l.9-.64,2-1.22,1.22-.58L28.28,75l1.28-.45,2.5-.77L35,73.31l3-.39,1.8.2.45.45.06,1.54v2.5l.13,2,.07.89v1.09l.12,1.74Z"/><polygon class="cls-1" points="25.47 47.13 24.94 45.42 24.69 44.22 24.24 43.55 24.03 41.74 23.69 40.5 23.2 38.91 22.93 37.39 22.73 36.18 22.21 34.72 22.01 33.72 21.78 32.38 21.37 30.83 20.74 28.74 20.49 27.55 19.34 23.27 18.75 21.31 18.34 20.02 17.9 19.88 17.56 19.83 17.26 19.98 17.36 21.34 17.94 22.98 18.24 24.36 18.73 26.43 19.49 29.01 20.07 31.45 20.35 32.5 20.96 34.26 21.23 35.52 21.57 37.02 21.93 38.39 22.3 39.28 22.34 40.4 22.72 41.56 23.11 43.05 23.62 44.71 24.11 46.77 25.24 50.98 25.58 51.76 26.34 51.62 26.48 50.38 25.93 48.87 25.47 47.13"/><path class="cls-1" d="M64.31,45.7l-11-41.1A6.2,6.2,0,0,0,45.7.21l-41.1,11A6.2,6.2,0,0,0,.21,18.82l11,41.1a6.2,6.2,0,0,0,7.59,4.39l41.1-11A6.2,6.2,0,0,0,64.31,45.7ZM39.19,36.62l-2,1L35,38l-3.9,1.31-.3.35.37,1.62,1,3.91.29,1.32,1.36,5.08.13,2-.85,1L31.83,55l-7.69,2.06-2.31.56-1.32-.25-.44-1.14-.9-3.35-.43-1.34L18,49.6l-.26-1.46L17.06,46l-.68-2.8L15.78,41l-.56-1.84-.5-1.86-.54-1.78-.5-2.12-1.91-7.13-.43-2.08-.42-1.34-.37-1.1-.29-1.12L10,19.46l-.4-1.75.5-1.6.61-.43,1.07-.22,2.09-.62,1.26-.27,1.86-.5,1.32-.29,3.16-.85,1.2-.45,1-.13,1.28-.41,4.34-1.16,2.25-.54,1.76-.34,1.29,1.32.13,2.22L33,14.36l-2.39.51-2.32.75L26,16.25l-.65,2,.62,2.55.3,1.12.46,2.47L27,25.62l1.31,4.9.66,2.21.46,1.47,1.6,0,5.27-1.41,1.85,0,.79.72.39,1.22Z"/><path class="cls-1" d="M175.13,68.7H132.58a6.21,6.21,0,0,0-6.2,6.2v42.55a6.2,6.2,0,0,0,6.2,6.2h42.55a6.19,6.19,0,0,0,6.2-6.2V74.9A6.2,6.2,0,0,0,175.13,68.7Zm-14.45,8.14-.26,2.63.06,1.41.13,2.12L160,84.28l-1.41.19-1.54.19-1.92.13-1,.39-1.35,1-.51,1.09.13,1.86.32,1.22.39,1.29.44,1.22.9,2.37.58,1.8.64,1.79.64,2.44.32,1.48.39,1.66.13,1.41-.07,1.42-.51,2.88-1.09,2.7-.83,1.15-.9,1-1,.9-2.37,1.41-1.29.45-1.41.32-2.76.06-2.56.26-2.18-.19-1.16-.07H137.9l-2.31-.13-1.35-.38-.32-.71v-3.14l-.06-1.35v-2.63l.06-2.31,1.16-.77h1.41l1.54-.06,1.92-.13,1.16-.26,1.47-1.34.07-2.06-.19-1.15-.71-2.37L141,96.92l-.38-1.29-.39-1.21-.32-1.22-.71-2.44-.32-1.22-.38-1.35-.07-1.28-.06-1.16.06-1.15.52-2.31.38-1.15.52-1,1.22-1.8,1.79-1.73,2.5-1.67L148,74l4-1h1.16l1.47-.12,1.8-.13,1.15-.07h1.09l1.41.32.52,1.48.13,1.22Z"/><polygon class="cls-1" points="151.69 78.7 151.18 78.83 150.35 79.02 149.45 79.79 147.97 80.69 146.24 82.61 145.66 83.83 145.34 86.33 145.34 87.49 145.41 88.64 145.6 89.8 146.05 91.66 146.75 93.58 147.46 95.44 147.78 96.15 148.04 97.5 148.81 99.87 149.19 101.41 149.32 101.99 149.45 102.43 149.38 103.27 149.45 104.55 149.38 105.39 149.26 106.86 148.68 108.08 147.84 109.11 146.88 110.13 144.7 110.97 143.55 111.35 141.43 111.99 141.04 113.02 142.78 112.89 144.44 112.38 144.77 112.25 147.07 111.48 148.94 109.94 149.83 108.79 149.77 108.53 150.48 107.44 150.8 105.32 150.67 103.33 150.41 100.89 149.9 99.42 149.58 98.07 149.26 96.85 148.62 95.25 148.17 93.58 147.52 92.23 147.33 91.02 146.88 89.8 146.63 88 146.5 86.08 146.37 85.56 146.63 85.24 146.75 84.54 147.14 83.77 147.59 83.06 149.45 81.2 152.01 79.79 153.43 79.4 155.03 79.15 155.03 78.31 153.17 78.12 151.69 78.7"/></g></g></g></svg>