<svg xmlns="http://www.w3.org/2000/svg" viewBox="0 0 301.46 600.05"><defs><style>.cls-1{font-size:58.26px;fill:#0f0f0f;font-family:Tomarik-Poster, Tomarik;font-weight:900;}.cls-2{letter-spacing:-0.04em;}.cls-3{letter-spacing:-0.02em;}.cls-4{fill:#0669ba;}.cls-5{fill:#ffd401;}.cls-6{fill:#f4584b;}.cls-7{fill:#805d9d;}</style></defs><g id="Layer_2" data-name="Layer 2"><g id="_2_logo" data-name="2 logo"><g id="vertical_colored" data-name="vertical colored"><text class="cls-1" transform="translate(18.3 511.2)">FOURSQ<tspan class="cls-2" x="170.12" y="0">U</tspan><tspan x="199.95" y="0">ARE</tspan><tspan x="2.88" y="69.91">C.E. S</tspan><tspan class="cls-3" x="123.89" y="69.91">T</tspan><tspan class="cls-2" x="146.03" y="69.91">A</tspan><tspan x="169.1" y="69.91">TION</tspan></text><polygon class="cls-4" points="60.02 345.33 60.18 344.23 59.55 342.19 58.29 341.56 57.04 344.39 57.19 348.32 57.35 351.46 57.04 354.92 57.04 371.27 56.88 374.1 57.19 376.93 57.35 379.29 57.04 382.59 56.88 387.78 56.72 392.81 57.04 395.48 57.04 399.88 57.35 401.77 56.88 402.87 56.88 405.7 56.56 409.31 56.88 412.77 56.72 415.6 57.04 418.59 56.72 422.2 57.35 425.35 58.61 426.77 59.24 426.45 59.71 425.51 59.87 423.46 59.87 420.48 59.71 417.49 59.87 414.5 60.02 409.47 59.71 404.44 59.87 400.35 59.87 379.6 60.34 375.67 60.18 373 60.18 369.07 60.49 364.98 60.02 361.52 60.02 360.74 60.49 357.91 60.65 352.88 60.65 350.05 60.18 346.59 60.02 345.33"/><path class="cls-4" d="M137.27,316.12H33a15.19,15.19,0,0,0-15.2,15.19V435.59A15.19,15.19,0,0,0,33,450.78H137.27a15.19,15.19,0,0,0,15.19-15.19V331.31A15.19,15.19,0,0,0,137.27,316.12Zm-34.8,23.24L100,340.77l-2.51-.47-4.09.47-4.4-.16-4.4.16H78.26L77,341.87v9.59l-.16,2.83v8.49l-.63,4.88V384L80,385.1l3.46-.15H94l4.56.63,1.88,3.46.16,3L99.17,396l-2.2.63-2.21-.16H77.16l-.79.79-.16,3.93v23.74l3,.79,2.83.15H96.34l4.55,1.42.48,4.71v3.62l-1.26.94L97,436.2H94.29l-4.24.47-3.15.16-2.51-.32-2.2.32-3.46-.16H74.64l-2,.16-3.15-.32-2.83.16L63.8,437l-5-.15-3-.47-3.62.47-3.3-.63H45.4l-3.46-1.1-1.1-4.25-.15-3.3.15-5.35.47-4.24-.15-3.61L41,411.67V409l-.16-2,.32-2.83-.32-3.78.32-2.67-.32-3.61.32-4.72L41,385.89l.47-2V342.66l-.16-6-.62-3.93,2.2-2.68,4.87-.31H72.6l4.56.15,3.61-.15h3.78l5.5-.16,3.3.16h5.19l2.83.47,1.57,1.42.63,3.45Z"/><polygon class="cls-5" points="81.32 197.11 76.29 198.53 74.25 199.47 72.99 199.94 69.22 201.83 63.87 205.92 59.63 209.53 57.43 212.52 54.44 217.24 52.24 221.95 50.67 226.51 50.04 229.65 49.41 236.41 49.57 241.6 50.83 246.32 52.71 252.92 55.7 257.95 58.22 261.88 60.1 263.77 64.82 268.01 70.95 271.94 75.51 274.14 77.39 274.46 81.17 275.87 86.04 276.81 88.08 276.19 87.14 274.3 83.21 273.2 80.54 272.57 77.87 271.63 73.46 269.58 69.22 267.07 64.66 263.61 62.46 261.57 60.42 259.36 58.53 257.01 56.01 253.08 55.07 251.51 54.28 248.67 53.18 242.39 52.87 238.93 52.4 234.53 53.34 230.13 53.81 227.77 54.13 225.41 55.23 223.52 56.49 220.22 59.16 215.66 61.04 212.99 63.24 210.63 65.6 208.59 70.32 205.29 72.52 203.56 73.62 203.4 77.39 201.51 83.52 199.63 86.04 197.9 86.51 196.96 85.73 196.33 81.32 197.11"/><path class="cls-5" d="M137.27,169.78H33A15.19,15.19,0,0,0,17.8,185V289.25A15.19,15.19,0,0,0,33,304.44H137.27a15.19,15.19,0,0,0,15.19-15.19V185A15.19,15.19,0,0,0,137.27,169.78ZM99.56,210v2.67l-2.36,1.1-5.81.63-3.31.63-6.44,2.21-2.83,1.57-2.67,2-2.2,2.36-2.36,3.3-1.26,4.4-.94,6.76.31,3,1.89,5.81L73.15,249,75,251.35l2.35,1.88,5.35,3.15,2.83.94,3.14.63,5.35.78,3.61.32,1.26,2,.16,5,.15,6.6-.15,6V288l-.47,1.73-3.3,1.72-6.92-.31-7.23-.47-3.3-.47-3.15-.63-3.14-.94-6.13-2.36-2.83-1.42-2.83-1.57-2.68-1.73-4.87-3.61L50,276l-1.89-2.2-3.45-4.72L43,266.44l-3.14-5-1.26-2.52-.94-2.67-1.89-6.44-1.25-6.14V233l.31-3.45.47-3.31.79-3.45,2-6.13,1.1-2.84L42,208.43l1.57-2.67,2.68-3.62,3.14-3.61,2.36-2.36,4.72-3.77,2.2-1.58,5-3,3-1.42,2.83-1.26,3.15-1.1,6.13-1.88,7.07-1.1,7.39-1,4.4.47,1.1,1.11.16,3.77v6.13l.31,4.87.16,2.2v2.67l.32,4.25Z"/><polygon class="cls-6" points="62.41 115.5 61.12 111.29 60.5 108.36 59.41 106.71 58.88 102.29 58.06 99.26 56.85 95.35 56.18 91.62 55.71 88.66 54.43 85.09 53.93 82.62 53.38 79.35 52.36 75.56 50.83 70.43 50.21 67.51 47.4 57.03 45.95 52.21 44.94 49.06 43.87 48.7 43.02 48.6 42.3 48.96 42.55 52.31 43.95 56.32 44.7 59.71 45.89 64.76 47.75 71.09 49.18 77.06 49.87 79.64 51.36 83.96 52.02 87.04 52.85 90.72 53.74 94.06 54.66 96.26 54.74 99.01 55.66 101.85 56.64 105.5 57.89 109.55 59.08 114.61 61.85 124.93 62.68 126.83 64.54 126.49 64.88 123.47 63.55 119.75 62.41 115.5"/><path class="cls-6" d="M157.59,112l-27-100.72A15.2,15.2,0,0,0,112,.52l-100.72,27A15.19,15.19,0,0,0,.52,46.12l27,100.72a15.18,15.18,0,0,0,18.61,10.74l100.72-27A15.2,15.2,0,0,0,157.59,112ZM96,89.73l-4.87,2.45L85.68,93l-9.56,3.22-.74.85.9,4,2.56,9.57.71,3.23,3.33,12.45.31,4.8-2.09,2.52L78,134.76l-18.83,5.05-5.66,1.35-3.25-.59-1.07-2.8-2.2-8.2-1-3.3-1.75-4.74L43.54,118l-1.73-5.24-1.67-6.87-1.47-5.47L37.3,95.87l-1.22-4.56L34.75,87l-1.24-5.2L28.84,64.29l-1-5.1-1.05-3.3-.89-2.69-.73-2.73-.58-2.78-1-4.29,1.24-3.91,1.5-1.06,2.63-.54,5.12-1.53,3.07-.66,4.56-1.22,3.23-.71,7.74-2.08,3-1.11L58,30.27l3.15-1,10.63-2.85,5.5-1.32,4.34-.83,3.14,3.23.32,5.44-4.12,2.25-5.85,1.24-5.69,1.85-5.77,1.54-1.59,5,1.51,6.27.74,2.73,1.13,6L66,62.78l3.21,12,1.62,5.42L72,83.8l3.93.09,12.9-3.46,4.54-.07,1.94,1.76,1,3Z"/><path class="cls-7" d="M283.22,316.12H178.94a15.19,15.19,0,0,0-15.19,15.19V435.59a15.19,15.19,0,0,0,15.19,15.19H283.22a15.19,15.19,0,0,0,15.19-15.19V331.31A15.19,15.19,0,0,0,283.22,316.12Zm-35.43,19.94-.63,6.44.16,3.46.31,5.19-1.42,3.14-3.45.48-3.78.47-4.71.31-2.52.95-3.3,2.51-1.26,2.67.32,4.56.78,3,1,3.15,1.1,3,2.2,5.82,1.41,4.4,1.58,4.4,1.57,6,.78,3.61,1,4.09.31,3.46-.16,3.46-1.25,7.07-2.68,6.6-2,2.83-2.2,2.52-2.52,2.2-5.81,3.46-3.15,1.1-3.46.78-6.75.16-6.29.63-5.35-.47-2.83-.16H192l-5.66-.31L183,436l-.79-1.73v-7.7l-.16-3.3v-6.44l.16-5.67,2.83-1.88h3.46l3.77-.16,4.72-.31,2.83-.63,3.62-3.3.15-5-.47-2.82-1.73-5.82-1.89-6-.94-3.15-.94-3-.79-3-1.73-6-.78-3-1-3.31-.15-3.14-.16-2.83.16-2.83,1.25-5.66.95-2.83,1.26-2.51,3-4.4,4.4-4.25,6.14-4.09,6.44-2.35,9.75-2.52h2.83l3.61-.31,4.41-.32,2.82-.15h2.68l3.45.78,1.26,3.62.32,3Z"/><polygon class="cls-7" points="225.78 340.62 224.52 340.93 222.48 341.4 220.28 343.29 216.66 345.49 212.42 350.21 211 353.19 210.22 359.33 210.22 362.16 210.37 364.99 210.84 367.81 211.94 372.38 213.67 377.09 215.4 381.65 216.19 383.38 216.82 386.68 218.7 392.5 219.65 396.27 219.96 397.69 220.28 398.79 220.12 400.83 220.28 403.97 220.12 406.02 219.81 409.63 218.39 412.62 216.35 415.13 213.99 417.65 208.64 419.69 205.81 420.64 200.63 422.21 199.68 424.72 203.93 424.41 208.01 423.15 208.8 422.84 214.46 420.95 219.02 417.18 221.22 414.35 221.06 413.72 222.79 411.05 223.58 405.86 223.26 400.99 222.63 395.01 221.38 391.4 220.59 388.1 219.81 385.11 218.23 381.18 217.13 377.09 215.56 373.79 215.09 370.8 213.99 367.81 213.36 363.41 213.04 358.7 212.73 357.44 213.36 356.65 213.67 354.92 214.62 353.04 215.72 351.31 220.28 346.75 226.56 343.29 230.02 342.35 233.95 341.72 233.95 339.68 229.39 339.2 225.78 340.62"/></g></g></g></svg>