<svg xmlns="http://www.w3.org/2000/svg" viewBox="0 0 444.36 303.01"><defs><style>.cls-1{fill:#0f0f0f;}.cls-2{fill:#0669ba;}.cls-3{fill:#ffd401;}.cls-4{fill:#f4584b;}.cls-5{fill:#805d9d;}</style></defs><g id="Layer_2" data-name="Layer 2"><g id="_2_logo" data-name="2 logo"><g id="horizontal_colored" data-name="horizontal colored"><path class="cls-1" d="M174.48,66.32l-.7-.12h-.7l-.29-.41-.06-1.4-.06-1.22V56.24l.06-2.27V29l.23-1.4.7-.4.93-.06.94-.12h1.16l1.86.23,2.33-.05.94.11h1.45l1.11-.11,1.92-.06,1.52.06.41.75.05,1.28v1.23l-.23.87-.41.29-1.45,0H185l-1.63.17-1-.06-1.4.06-1.22-.06-1.34.06-.7,1.11v6.58l.06,2.33.23,1.63.7.12,1.34-.18,1.17,0,2,.11,2.09-.06h1.17l1.4.29.23,1.64v1.8l-.53.7H186.3l-1.51.06-1.34.12h-1.4l-1.34-.06L179.2,48l-1-.06-.24.29-.06,1.4V61.77l0,1.75,0,1v.93l-.35.64-1.16.06-.93.18-.41.23Z"/><path class="cls-1" d="M205.53,67.37l-2-.7-1-.47-.93-.58-1.81-1.69-.87-1-1.34-2.45L196.56,58l-.35-1.1-.47-2.22-.17-1.1-.12-1.11-.12-2.21V47l.24-2.15.11-1,.24-2,.23-1,.17-1,.47-2.1.35-1.1.76-2,.46-1,.53-.93,1.45-1.87.88-.93.93-.82,1-.7,2.45-.93,2.44-.29,1.87.41,2,.58,1.1.58,1.05.7.93.88,1.52,1.86.58,1,.47,1.05.4,1,.65,2.33L219,38.7l.35,1.46.18,1.46.12,1.16.05,1.22.06,1.17v3l-.06,2.27-.11,1.05-.12,1.11-.35,2.21-.46,2.16-.3,1-.81,2-.47,1-.52.93-1.23,1.81-.69.75L213,65.91l-1,.64L211,67l-1.11.29-1.75.17H207Zm3.55-4.67,1.4-.87,1-.81,1.28-2,.47-1,.93-2.16.35-2.21.29-2.16.12-1.28L215,49l.06-1.29L215,45.23l-.11-1.17-.29-2.56-.24-1.34-.52-2.62-.47-1.23-1.39-2-.76-.81-1.34-1.05L208,32.12l-2.27.52-.93.53-1.28,1.45-1.05,1.87-.41,1.11-.58,1.74L201,41.15l-.17,1.28v1.63l-.23,1.11-.06,2.21-.18,2.33V52l.29,2.21.18,1,.23,1,.76,2.27.7,1.16,1.92,2,2.16,1.11,1,.18Z"/><path class="cls-1" d="M237.69,67.31l-1.11-.18-1.05-.29-2-.81-.81-.53-.82-.64-1.28-1.4-1-1.8-.47-1.11-.35-1.17-.29-1.57V51.64l.06-1.11v-10l.18-.88-.12-.87.06-1,.11-.82-.05-1.74.05-2.39V29.44l.29-1.81,1.11-.35,1.69-.11,1.22.23.35,1.4v9l-.05,1.28v1.28l-.18,1.29V43l-.06,1.34-.06,1.22-.11,1.4.23,1.28-.06,1.86v2.51l.06,1.22.06,1.87.23,1.74.24,1.23.29,1.28.81,1.11.93.75,1.11.53,1.69.29,1.52.17,1-.17,2-1.17,1.34-2.09.4-1.17.24-1.28.17-2.21.18-1.34V47.21l-.06-1.63.06-1-.18-.7.23-1.34V41.27l-.05-2.33v-11l.29-.4.75-.12,1-.06h.94l.93.06.58.52.18,1.29L250,30.49l.17,1.57v1.11l-.05,1.16-.06,1.58-.12.64.12,1.57.06,1.34v1.28L250,42.2l.06,1.22L250,44.53l-.12,1.11L250,48v2.51L250,52v1.34l-.06,1-.23,2.21-.23,1.22-.3,1.23-.7,2.44-.75,1.4-.53.88-1.34,1.57-2.09,1.4-2.39.64-1.28.17Z"/><path class="cls-1" d="M280.45,66.49l-.81.06h-.82l-1.16-.06-2-1.11-1.57-2-.76-.94L272,60.49l-1.46-1.81-.76-.87-.7-.93L267.46,55l-.93-.81v7.46l.06,1.16.05,2-.17,1.28-1.51.06-2,.23-1.11-.11-.29-.93-.12-1.52V62.36l.06-1.23-.06-1.45L261.34,58l.06-1.4-.06-1.34.06-1.46-.06-1.4.06-1.4-.11-1,.23-1.4.11-2v-2.1l-.05-2V36.08l.11-1.75-.06-1.45-.05-1.52.05-1.4.06-.87-.06-1,1.05-.87,1.29-.06h1.34l1.33.11,1.75.53,1.05.58.93.64.94.76,1.51,1.57.64.88.53.93.69,2,.35.93.64,2.16.18,1.16.06,2.1-.18,1.86-.35,1.46-.4,1.57-.41,1.11-.58,1-1.58,1.86-.93.88L271.19,53l.7.87,1.4,1.63,1.39,1.69,2.1,2.62,1.46,1.75,2.1,2.62.87,1.4.06.81-.29.3Zm-12-19.17.87-.81.65-.93.64-2.22.17-1.1.12-1.46-.23-1.51-.47-2.45-.41-1.23-.58-1.1-1.46-1.81-1-.58-.12.58.12.88-.06,1v1.05l-.11,1.11v2.45l-.06,1,.11,1.63-.05,2v3.44l.46.87Z"/><path class="cls-1" d="M287.5,66.78l-.35-.58,0-1.4V63.64l1.1-1.46,1.87.23,2.15-.23,1.11-.29,1.16-.41,1.11-.81.76-1,.52-2.39-.7-2.28-.46-1-.53-1-1.1-1.87-.47-.87-1.05-1.81-1.05-1.86-.58-.93-1.57-2.92-.58-.93-.53-1-.47-1-.4-1L286.8,37l-.23-.93.06-1.05.17-1.86.7-2,1.17-1.69,1.75-1.22,1-.35,2.28-.47,1.16-.06h2.51l1.57.35.47,1.69-.35,1.75-1.75.35-2.45.06-1,.29-1.69,1-.52.87-.24,1.92.7,1.87.41.93,1.11,1.69,1,1.81.58.93.88,1.51.81,1.58.53.93.52,1,.52.93,1.11,1.87.47,1,.46.93.59,1.51.64,1.81.23,1.28-.23,2.45-.35,1.1-.76,1.75-1,1.52-.76.75-.87.7-.93.53-2,.75-1.28.06-1.34.29H289Z"/><path class="cls-1" d="M327.88,70.28l-1.23-1.81-.58-.93-1.57-.47-1.05.24-1.69.17h-1.05l-1.51-.11-2-.7-1-.47-.94-.58-1.8-1.69-.88-1-1.34-2.45-1-2.39-.35-1.1-.47-2.22-.18-1.1-.11-1.11L309,50.3V47l.23-2.15.12-1,.23-2,.24-1,.17-1,.47-2.1.35-1.1.75-2,.47-1,.53-.93L314,30.72l.88-.93.93-.82,1.05-.7,2.44-.93,2.45-.29,1.86.41,2,.58,1.11.58,1.05.7.93.88,1.52,1.86.58,1,.46,1.05.41,1,.64,2.33.35,1.22.35,1.52.18,1.4.11,1.16.06,1.22.06,1.17v3l-.06,2.27-.11,1.05-.12,1.11-.35,2.21-.47,2.16-.29,1-.81,2-.47,1-.52.93-.88,1.28.47,1.52,1.34,2.15.64,1,.41,1.52-1.4,1.22-1.87.64Zm-5.25-7.52-.35-1-.64-1-1.22-1.92-.7-.93L319,56.3l1.17-1.11.75-.64,1.34-.64.65.11.69,1.11.65.93,1.22,1.87.76,1,.64-.88.93-2.21.35-2.21.29-2.16.12-1.28.11-1.22.06-1.29-.06-2.44-.11-1.17-.29-2.56-.24-1.34-.52-2.62-.47-1.23-1.4-2-.75-.81-1.34-1.05-1.87-.35-2.27.52-.93.53-1.28,1.45-1.05,1.87-.41,1.11-.58,1.74-.47,1.81-.17,1.28v1.63l-.24,1.11-.05,2.21-.18,2.33V52l.29,2.21.18,1,.23,1,.76,2.27.7,1.16,1.92,2,2.15,1.11,1,.18Z"/><path class="cls-1" d="M351.36,67.31l-1.11-.18-1.05-.29-2-.81-.81-.53-.82-.64-1.28-1.4-1-1.8-.47-1.11-.35-1.17-.29-1.57V51.64l.06-1.11v-10l.17-.88-.11-.87.06-1,.11-.82-.06-1.74.06-2.39V29.44l.29-1.81,1.11-.35,1.69-.11,1.22.23.35,1.4v9l-.06,1.28v1.28l-.17,1.29V43l-.06,1.34-.06,1.22-.11,1.4.23,1.28-.06,1.86v2.51l.06,1.22.06,1.87.23,1.74.23,1.23.3,1.28.81,1.11.93.75,1.11.53,1.69.29,1.51.17,1.05-.17,2-1.17,1.34-2.09.41-1.17.23-1.28.18-2.21.17-1.34V47.21l-.05-1.63.05-1-.17-.7.23-1.34V41.27l-.06-2.33v-11l.3-.4.75-.12,1-.06h.93l.94.06.58.52.17,1.29-.11,1.28.17,1.57v1.11l-.06,1.16-.05,1.58-.12.64.12,1.57.05,1.34v1.28l-.11,1.46.06,1.22-.06,1.11-.12,1.11.06,2.38v2.51l.06,1.46v1.34l-.06,1-.23,2.21-.24,1.22L362.89,59l-.7,2.44-.75,1.4-.53.88-1.34,1.57-2.1,1.4-2.38.64-1.29.17Z"/><path class="cls-1" d="M371,66.55l-1,.06-1.22-.47.17-1.4.24-1,.29-1.8.52-1.87.23-1.16.24-1.23.58-2.56.41-1.92.17-.7.24-1.34.29-1.22.87-3.5.23-2,.53-2,.23-1.11.23-1.16.3-1.34L375,37.3,375.3,36l.64-2.27.3-1,.17-1,.47-2.44.52-1.75,1.34-.29,1.11.23L381,29.09l.24,1.17.58,2.21.23,1.11.58,2.38.24,1.29.58,2.38.93,3.44.29,1.23.35,1.16.29,1.22.59,2.39.35,1.17.58,2.44.35,1.17.64,2.39.87,3.2.29,1.05.64,2.1.35,1.16.47,1.69-.23.93-.41.3-1.46-.12-2.27-.06-1.22-1-.24-1.28-.46-1.8-.29-1.29-.41-1.51-.52-.35-1.81-.06h-1.86l-1.11-.23-1.4.17L375.59,59l-.75,1.34-.24,1.17-.23,1.11-.17,1.16L374,65l-.7,1.45-.93.24Zm10.2-11.77,1-.52-.29-1.46L381,49.54l-.64-2.22-.87-3.49-.35-1.22-.76-.06-.29,1.16-.41,2.39-1.05,4.78L376.18,53l-.24,1.46,1.17.29Z"/><path class="cls-1" d="M417.19,66.49l-.81.06h-.82l-1.16-.06-2-1.11-1.57-2-.76-.94-1.39-1.92-1.46-1.81-.76-.87-.7-.93L404.2,55l-.93-.81v7.46l.06,1.16.05,2-.17,1.28-1.52.06-2,.23-1.11-.11-.29-.93-.12-1.52V62.36l.06-1.23-.06-1.45L398.08,58l.06-1.4-.06-1.34.06-1.46-.06-1.4.06-1.4L398,50l.24-1.4.11-2v-2.1l-.05-2V36.08l.11-1.75-.06-1.45-.05-1.52.05-1.4.06-.87-.06-1,1.05-.87,1.28-.06H402l1.34.11,1.75.53,1.05.58.93.64.94.76,1.51,1.57.64.88.53.93.69,2,.35.93.64,2.16.18,1.16.06,2.1-.18,1.86-.35,1.46-.4,1.57-.41,1.11-.58,1-1.58,1.86-.93.88L407.93,53l.7.87,1.4,1.63,1.39,1.69,2.1,2.62L415,61.54l2.1,2.62.87,1.4.06.81-.29.3Zm-12-19.17.87-.81.65-.93.64-2.22.17-1.1.12-1.46-.24-1.51-.46-2.45-.41-1.23-.58-1.1-1.46-1.81-1-.58-.12.58.12.88-.06,1v1.05l-.11,1.11v2.45l-.06,1,.11,1.63-.05,2v3.44l.46.87Z"/><path class="cls-1" d="M426.34,66.55l-.64-1.46V62.88l.06-2.27V45.69l.11-1.92-.11-1.51.06-1.75.11-1.11.12-2.1V33.05l.06-1.63.06-.87-.12-1.4.47-1.52,1.57-.23,2.1-.06,1.68.18,1.75.06,2.16.11h1.34l2-.06h1l.46.47.18,1.34v1L440.38,32l-1.34.18-1.16-.06H436.3l-1.16.12-.88-.12-2.91.12-.58.52v9.61l.29,1.4h2.62l1.4-.12,1,.06,1.57-.11h1.63l1.29.29.4,1.16-.06,1.87-.29,1.1-1.39.24h-7.17l-1.28.4L430.71,50l-.06,1.75-.23,1.63.06,1.69v6.41l.81.47h3.79l2-.06H439l1.52.47.29,2L440.5,66l-1.34.35h-1.52l-1.34.17-1.16-.06-1.17.12-1.22-.06-1.52.06-2.27.23-1,.06Z"/><path class="cls-1" d="M185,136.35l-1.4-.24-.81-.29-1.11-.4-1.11-.59-1.22-.58-.81-.58L176.84,132l-.82-1-1.16-2.22-.47-1.1-.47-1.81,0-.76-.18-1-.12-1.39,0-1.4-.06-1.34-.24-1.69.24-1.46.06-1.46v-1l.11-2.21.24-2.33.52-2.27.35-1.17.81-2.5,1.23-2.27.7-.94.75-.81.88-.7.93-.64,1.75-.76,1.75-.29,1-.12,1.11-.06,1.4.35.35,1.46v1.22l-.35,1.52-.76.29-1.8.23-2.39,1-.88.88-.7,1-1.1,2.1-.29,1-.24,1.05-.4,2.16-.06,1v1.1l-.06,1.93v7.22l.17,2,.24,1,.64,1.28.52,1.11,1.46,1.4,1,.64,2.21,1.05,2.1.11.76,1.58v1.16l.11,1.52-.29.52-.87.23Z"/><path class="cls-1" d="M197.23,136.52l-.12-1.45v-2l.06-1.69.7-.76,1.63-.17,2.39.23,1.4.87.05,1.34v.93l.06.94v1.05l-.29.81-1.4.29h-3.2Z"/><path class="cls-1" d="M215.75,136.46l-.64-1.45v-2.22l.06-2.27V115.61l.12-1.92-.12-1.52.06-1.75.12-1.1.11-2.1V103l.06-1.64.06-.87-.12-1.4.47-1.51,1.57-.24,2.1,0,1.69.17,1.75.06,2.15.12h1.34l2-.06h1.05l.47.46.17,1.34v1.05l-.47,1.52-1.34.17-1.16-.06h-1.57l-1.17.12-.87-.12-2.92.12-.58.52v9.62l.29,1.4h2.62l1.4-.12,1,.06,1.58-.12h1.63l1.28.29.41,1.17-.06,1.86-.29,1.11-1.4.23h-7.17l-1.28.41-.06,1.34-.05,1.75-.24,1.63.06,1.69v6.41l.82.46h3.78l2-.06h1.92l1.52.47.29,2-.35,1.57-1.34.35h-1.51l-1.34.18-1.17-.06-1.16.11-1.23-.05-1.51.05-2.27.24-1,.06Z"/><path class="cls-1" d="M240,136.52l-.12-1.45v-2l.06-1.69.7-.76,1.63-.17,2.39.23,1.4.87.06,1.34v.93l.06.94v1.05l-.3.81-1.39.29h-3.21Z"/><path class="cls-1" d="M272.73,136.7l-.35-.59-.05-1.39v-1.17l1.1-1.45,1.87.23,2.15-.23,1.11-.3,1.16-.4,1.11-.82.76-1,.52-2.39-.7-2.27-.46-1.05-.53-1-1.1-1.86-.47-.88-1.05-1.8-1.05-1.87-.58-.93-1.57-2.91-.58-.93-.53-1-.47-1-.4-1-.59-1.75-.23-.93.06-1L272,103l.7-2,1.17-1.69,1.75-1.22,1.05-.35,2.27-.47,1.16,0h2.51l1.57.35.47,1.69-.35,1.74-1.75.35-2.45.06-1,.29-1.69,1-.52.88-.23,1.92.69,1.86.41.94,1.11,1.69,1,1.8.58.93.88,1.52.81,1.57.53.93.52,1,.52.94,1.11,1.86.47,1,.46.93.59,1.52.64,1.8.23,1.28-.23,2.45-.35,1.11-.76,1.75-1,1.51-.76.76-.87.7-.93.52-2,.76-1.28.06-1.34.29h-3.5Z"/><path class="cls-1" d="M300.29,136.23l-.12-1.63v-4.14l-.11-1.05-.06-1.57v-.93l-.06-1.57V122l-.06-1.11.12-2-.06-1.69v-7.05l.06-1.69-.06-2-.06-2.5v-1.63l-.81-.47h-3.26l-1.52.06-1.28-.12-.47-1.57V99l1.4-1.29,2.16.24,1.69-.12.93.12,1.57-.24,2,.12,2.22-.06,1.39.06,1.46-.17,1.51.17,1.52-.12,1.75,1,.11,1.05-.11,1.52-.41.46-1.4.06h-4.78L305,102v1.11l-.12,1.57.18,1.81v3.79l.06,1.8v1.81l-.06,1.92v1.57l-.06.94.12.87v6.29l.06,2,.11,1.4v1.69l.06,1.11v1.16l-.06,1.34.06,1.05-.23,1.17-1.34.35h-2Z"/><path class="cls-1" d="M317.07,136.46l-1,.06-1.22-.46.17-1.4.24-1,.29-1.81.52-1.86.23-1.17.24-1.22.58-2.56.41-1.93.17-.7.24-1.34.29-1.22.87-3.49.23-2,.53-2,.23-1.11.23-1.17.3-1.34.46-1.51.29-1.34.64-2.27.29-1,.18-1,.47-2.45.52-1.75,1.34-.29,1.11.23L327.09,99l.23,1.17.59,2.21.23,1.11.58,2.39.24,1.28.58,2.39.93,3.44.29,1.22.35,1.16.29,1.23L332,119l.34,1.16.59,2.45.35,1.16.64,2.39.87,3.21.29,1,.64,2.09.35,1.17.47,1.69-.23.93-.41.29-1.46-.12-2.27-.05-1.22-1-.24-1.28-.46-1.81L330,131l-.41-1.52-.53-.35-1.8-.05h-1.87l-1.1-.24-1.4.18-1.17-.06-.75,1.34-.24,1.16-.23,1.11-.17,1.17-.24,1.16-.7,1.46-.93.23Zm10.2-11.76,1-.53-.29-1.45-.88-3.27-.64-2.21-.87-3.5-.35-1.22-.76-.06-.29,1.17-.41,2.39-1,4.77-.46,2.16-.24,1.46,1.17.29Z"/><path class="cls-1" d="M345.5,136.23l-.11-1.63v-4.14l-.12-1.05-.06-1.57v-.93l-.06-1.57V122l0-1.11.11-2-.06-1.69v-7.05l.06-1.69-.06-2,0-2.5v-1.63l-.82-.47H341l-1.52.06-1.28-.12-.47-1.57V99l1.4-1.29,2.16.24,1.69-.12.93.12,1.57-.24,2,.12,2.22-.06,1.4.06,1.45-.17,1.52.17,1.51-.12,1.75,1,.12,1.05-.12,1.52-.41.46-1.4.06h-4.77l-.53.23v1.11l-.11,1.57.17,1.81v3.79l.06,1.8v1.81l-.06,1.92v1.57l-.06.94.12.87v6.29l.06,2,.11,1.4v1.69l.06,1.11v1.16l-.06,1.34.06,1.05-.23,1.17-1.34.35h-2Z"/><path class="cls-1" d="M365.55,136.35l-.47-1.75v-8.86l.06-1.68V122.6l-.06-1.75v-1.57l.06-1.34.17-2v-2.39l.18-1.17-.12-1.34.18-2.38.05-1.11v-3.44l.06-1.63-.11-3.84.17-1.11,1.75-.29h1.34l1.57.29.41.46.06,1.29v4.36l-.06,2.22-.12,2.1-.11,2.33v9.08l-.06,1.11v3.32l-.06,1.34-.06,1.28.18.82-.06.93-.06,1.4.12,2v1.28l.05,1.81v.93l-.17.64-1.17.23-1.34-.05-.93.29Z"/><path class="cls-1" d="M390.36,137.28l-2-.7-1-.47-.93-.58-1.81-1.69-.87-1.05-1.34-2.44L381.39,128l-.35-1.11-.46-2.21-.18-1.11-.12-1.11-.11-2.21v-3.32l.23-2.16.12-1,.23-2,.23-1,.18-1,.47-2.1.34-1.11.76-2,.47-1,.52-.93,1.46-1.86.87-.94.93-.81,1-.7,2.45-.93,2.45-.29,1.86.4,2,.59,1.11.58,1.05.7.93.87,1.51,1.87.59,1,.46,1,.41,1,.64,2.33.35,1.23.35,1.45.17,1.46.12,1.17.06,1.22.06,1.16v3l-.06,2.27-.12,1-.11,1.1L404,124.7l-.47,2.15-.29,1-.82,2-.46,1-.53.94-1.22,1.8-.7.76-1.69,1.51-1,.64-1.05.47-1.1.29-1.75.18h-1.05Zm3.56-4.66,1.4-.87,1-.82,1.28-2,.46-1,.94-2.16.35-2.21.29-2.15.11-1.29.12-1.22.06-1.28-.06-2.45-.12-1.16-.29-2.57-.23-1.34-.53-2.62-.46-1.22-1.4-2-.76-.82-1.34-1.05-1.86-.35-2.27.53-.93.52-1.29,1.46-1.05,1.86-.4,1.11-.59,1.75-.46,1.8-.18,1.29V114l-.23,1.1-.06,2.22-.17,2.33v2.27l.29,2.21.17,1,.24,1,.75,2.27.7,1.17,1.93,2,2.15,1.11,1,.17Z"/><path class="cls-1" d="M430.27,136.17l-.11-1.69-.06-1.1v-2.16l.11-1.81-.11-1.28v-3.08l.11-2.33.06-1,.06-2v-1l.06-1.93v-1.4l-1.11-1.22-1-.7-1.75-1.16-.87-.7-4.19-2.74-1.29-.76-.46.35-.06,1.69v1.23l.06,1.22v3.67l-.12,1.69.06,1.75.06,1.28-.12,2.09-.11,2-.06,1.16-.06,2.27v3.27l.06,1.8v1.52l-.18.87-.29.41-.87.06-1.34.05-1.81-.23-.64-.06-.23-1.22v-1l.06-2.15.05-1.05.06-2.16v-4.25l.06-2.1.12-2.33.05-1.22v-2.33l.18-1.11-.12-.93.12-3.38v-3.21l-.06-1.39.12-1.46V103l.06-1V98.36l.35-.7.81-.17.76.06,1.05-.06,1.22.06.64.11.12,1.58v1.28l1,2,2,1.4L426,106l1,.64,2,1.39,1.4.59.17-.88-.11-.81.11-.53-.05-.81.05-1.23-.05-.64.11-1.34V99.76l.12-1.4.7-.46.93-.29.64,0,.58-.11,1,.23.88.7.11,1.57.12,4.43v1.34l.18.87-.24,1.87-.06,1.22.06,1.23v3.49l-.06,1.11v8.85l-.05,1.81-.18,1.75v2l-.12,2.15-.05,1.57.11,1-.17,1-.7.34-2.22.47-1,.06Z"/><polygon class="cls-2" points="205.97 197.56 206.13 196.46 205.5 194.42 204.24 193.79 202.98 196.62 203.14 200.55 203.3 203.69 202.98 207.15 202.98 223.5 202.82 226.33 203.14 229.16 203.3 231.52 202.98 234.82 202.82 240.01 202.67 245.04 202.98 247.71 202.98 252.11 203.3 254 202.82 255.1 202.82 257.93 202.51 261.55 202.82 265 202.67 267.83 202.98 270.82 202.67 274.44 203.3 277.58 204.55 279 205.18 278.68 205.66 277.74 205.81 275.69 205.81 272.71 205.66 269.72 205.81 266.74 205.97 261.7 205.66 256.67 205.81 252.58 205.81 231.83 206.28 227.9 206.13 225.23 206.13 221.3 206.44 217.21 205.97 213.75 205.97 212.97 206.44 210.14 206.6 205.11 206.6 202.28 206.13 198.82 205.97 197.56"/><path class="cls-2" d="M283.22,168.35H178.94a15.19,15.19,0,0,0-15.19,15.19V287.82A15.19,15.19,0,0,0,178.94,303H283.22a15.19,15.19,0,0,0,15.19-15.19V183.54A15.19,15.19,0,0,0,283.22,168.35Zm-34.8,23.24L245.9,193l-2.52-.47-4.08.47-4.4-.15-4.41.15h-6.28L223,194.1v9.59l-.16,2.83V215l-.63,4.88v16.35l3.77,1.1,3.46-.16h10.54l4.55.63,1.89,3.46.16,3-1.42,3.93-2.2.63-2.2-.16h-17.6l-.79.79-.16,3.93v23.74l3,.79,2.83.15h14.3l4.56,1.42.48,4.71v3.62l-1.26.94-3.15-.31h-2.67l-4.24.47-3.15.16-2.51-.32-2.2.32-3.46-.16h-4.09l-2,.16-3.15-.32-2.83.16-2.83.32-5-.16-3-.47-3.62.47-3.3-.63h-3.46l-3.46-1.1-1.1-4.25-.16-3.3.16-5.34.47-4.25-.16-3.61L187,263.9v-2.67l-.16-2,.31-2.83-.31-3.78.31-2.67-.31-3.61.31-4.72-.15-3.46.47-2V194.89l-.16-6-.63-3.93,2.2-2.68,4.88-.31h24.84l4.56.16,3.61-.16h3.77l5.51-.16,3.3.16h5.18l2.84.47,1.57,1.42.63,3.46Z"/><polygon class="cls-3" points="81.08 195.68 76.05 197.09 74.01 198.04 72.75 198.51 68.98 200.4 63.63 204.48 59.39 208.1 57.19 211.09 54.2 215.8 52 220.52 50.43 225.08 49.8 228.22 49.17 234.98 49.33 240.17 50.59 244.88 52.47 251.49 55.46 256.52 57.98 260.45 59.86 262.33 64.58 266.58 70.71 270.51 75.27 272.71 77.15 273.02 80.93 274.44 85.8 275.38 87.84 274.75 86.9 272.87 82.97 271.77 80.3 271.14 77.63 270.2 73.22 268.15 68.98 265.63 64.42 262.18 62.22 260.13 60.18 257.93 58.29 255.57 55.77 251.64 54.83 250.07 54.04 247.24 52.94 240.95 52.63 237.5 52.16 233.09 53.1 228.69 53.57 226.34 53.89 223.98 54.99 222.09 56.25 218.79 58.92 214.23 60.8 211.56 63.01 209.2 65.36 207.15 70.08 203.85 72.28 202.13 73.38 201.97 77.15 200.08 83.28 198.19 85.8 196.46 86.27 195.52 85.49 194.89 81.08 195.68"/><path class="cls-3" d="M137,168.35H32.76a15.19,15.19,0,0,0-15.2,15.19V287.82A15.19,15.19,0,0,0,32.76,303H137a15.19,15.19,0,0,0,15.19-15.19V183.54A15.19,15.19,0,0,0,137,168.35ZM99.32,208.57v2.67L97,212.34l-5.81.63-3.31.63-6.44,2.2-2.83,1.57-2.67,2-2.2,2.35-2.36,3.31-1.26,4.4-.94,6.76.31,3L71.34,245l1.57,2.52,1.89,2.36,2.35,1.88,5.35,3.14,2.83.95,3.14.63,5.35.78,3.61.32,1.26,2,.16,5L99,271.3l-.16,6v9.27l-.47,1.73L95.08,290l-6.92-.31-7.23-.47-3.3-.48-3.15-.62-3.14-.95-6.13-2.35-2.83-1.42-2.83-1.57-2.68-1.73L52,276.48l-2.2-1.88-1.89-2.2-3.45-4.72L42.72,265l-3.14-5-1.26-2.52-.94-2.67-1.89-6.45-1.25-6.13V231.52l.31-3.46.47-3.3.79-3.46,2-6.13,1.1-2.83L41.78,207l1.57-2.67L46,200.71l3.14-3.62,2.36-2.35L56.25,191l2.2-1.57,5-3,3-1.41,2.83-1.26,3.15-1.1,6.13-1.89,7.07-1.1L93,178.7l4.4.47,1.1,1.1.16,3.77v6.14l.32,4.87.15,2.2v2.67l.32,4.25Z"/><polygon class="cls-4" points="62.41 115.5 61.12 111.29 60.5 108.36 59.41 106.71 58.88 102.29 58.06 99.26 56.85 95.35 56.18 91.62 55.71 88.66 54.43 85.09 53.93 82.62 53.38 79.35 52.36 75.56 50.83 70.43 50.21 67.51 47.4 57.03 45.95 52.21 44.94 49.06 43.87 48.7 43.02 48.6 42.3 48.96 42.55 52.31 43.95 56.32 44.7 59.71 45.89 64.76 47.75 71.09 49.18 77.06 49.87 79.64 51.36 83.96 52.02 87.04 52.85 90.72 53.74 94.06 54.66 96.26 54.74 99.01 55.66 101.85 56.64 105.5 57.89 109.55 59.08 114.61 61.85 124.93 62.68 126.83 64.54 126.49 64.88 123.47 63.55 119.75 62.41 115.5"/><path class="cls-4" d="M157.59,112l-27-100.72A15.2,15.2,0,0,0,112,.52l-100.72,27A15.19,15.19,0,0,0,.52,46.12l27,100.72a15.18,15.18,0,0,0,18.61,10.74l100.72-27A15.2,15.2,0,0,0,157.59,112ZM96,89.73l-4.87,2.45L85.68,93l-9.56,3.22-.74.85.9,4,2.56,9.57.71,3.23,3.33,12.45.31,4.8-2.09,2.52L78,134.76l-18.83,5.05-5.66,1.35-3.25-.59-1.07-2.8-2.2-8.2-1-3.3-1.75-4.74L43.54,118l-1.73-5.24-1.67-6.87-1.47-5.47L37.3,95.87l-1.22-4.56L34.75,87l-1.24-5.2L28.84,64.29l-1-5.1-1.05-3.3-.89-2.69-.73-2.73-.58-2.78-1-4.29,1.24-3.91,1.5-1.06,2.63-.54,5.12-1.53,3.07-.66,4.56-1.22,3.23-.71,7.74-2.08,3-1.11L58,30.27l3.15-1,10.63-2.85,5.5-1.32,4.34-.83,3.14,3.23.32,5.44-4.12,2.25-5.85,1.24-5.69,1.85-5.77,1.54-1.59,5,1.51,6.27.74,2.73,1.13,6L66,62.78l3.21,12,1.62,5.42L72,83.8l3.93.09,12.9-3.46,4.54-.07,1.94,1.76,1,3Z"/><path class="cls-5" d="M429.17,168.35H324.89a15.19,15.19,0,0,0-15.19,15.19V287.82A15.19,15.19,0,0,0,324.89,303H429.17a15.19,15.19,0,0,0,15.19-15.19V183.54A15.19,15.19,0,0,0,429.17,168.35Zm-35.43,19.94-.63,6.45.15,3.45.32,5.19-1.42,3.15-3.46.47-3.77.47-4.71.31-2.52.95-3.3,2.51-1.26,2.68.32,4.55.78,3,.95,3.15,1.1,3,2.2,5.82,1.41,4.4,1.57,4.4,1.58,6,.78,3.61.94,4.09.32,3.46-.16,3.46-1.26,7.07-2.67,6.6-2,2.83-2.2,2.52-2.52,2.2-5.81,3.46-3.15,1.1-3.46.78-6.76.16-6.29.63-5.34-.47-2.83-.16h-2.67l-5.66-.31-3.3-1-.79-1.73v-7.7l-.16-3.3V269.1l.16-5.67,2.83-1.88h3.46l3.77-.16,4.72-.31,2.83-.63,3.61-3.3.16-5-.47-2.83-1.73-5.82-1.89-6-.94-3.15-.94-3-.79-3-1.73-6-.78-3-1-3.3-.16-3.15-.15-2.83.15-2.83,1.26-5.66.95-2.83,1.25-2.51,3-4.4,4.4-4.25,6.13-4.09,6.45-2.35,9.74-2.52h2.84l3.61-.31,4.4-.32,2.83-.15h2.67l3.46.78,1.26,3.62.32,3Z"/><polygon class="cls-5" points="371.73 192.85 370.47 193.16 368.43 193.63 366.22 195.52 362.61 197.72 358.37 202.44 356.95 205.43 356.16 211.56 356.16 214.39 356.32 217.22 356.79 220.04 357.89 224.61 359.62 229.32 361.35 233.88 362.14 235.61 362.77 238.91 364.65 244.73 365.6 248.5 365.91 249.91 366.22 251.01 366.07 253.06 366.22 256.2 366.07 258.25 365.75 261.86 364.34 264.85 362.29 267.36 359.94 269.88 354.59 271.93 351.76 272.87 346.57 274.44 345.63 276.95 349.87 276.64 353.96 275.38 354.75 275.07 360.41 273.18 364.97 269.41 367.17 266.58 367.01 265.95 368.74 263.28 369.53 258.09 369.21 253.22 368.58 247.24 367.32 243.63 366.54 240.32 365.75 237.34 364.18 233.41 363.08 229.32 361.51 226.02 361.04 223.03 359.94 220.04 359.31 215.65 358.99 210.93 358.68 209.67 359.31 208.88 359.62 207.15 360.56 205.27 361.67 203.54 366.22 198.98 372.51 195.52 375.97 194.58 379.9 193.95 379.9 191.91 375.34 191.44 371.73 192.85"/></g></g></g></svg>