<svg xmlns="http://www.w3.org/2000/svg" viewBox="0 0 112.85 170.47"><defs><style>.cls-1{fill:#0669ba;}.cls-2{fill:#ffd401;}.cls-3{fill:#f4584b;}.cls-4{fill:#805d9d;}</style></defs><g id="Layer_2" data-name="Layer 2"><g id="_2_logo" data-name="2 logo"><g id="vertical_colored_icon" data-name="vertical colored icon"><polygon class="cls-1" points="22.7 130.6 22.76 130.18 22.52 129.41 22.05 129.17 21.57 130.24 21.63 131.73 21.69 132.91 21.57 134.22 21.57 140.41 21.51 141.48 21.63 142.55 21.69 143.44 21.57 144.69 21.51 146.65 21.45 148.55 21.57 149.56 21.57 151.23 21.69 151.94 21.51 152.36 21.51 153.43 21.39 154.79 21.51 156.1 21.45 157.17 21.57 158.3 21.45 159.67 21.69 160.86 22.16 161.39 22.4 161.27 22.58 160.92 22.64 160.14 22.64 159.01 22.58 157.88 22.64 156.76 22.7 154.85 22.58 152.95 22.64 151.4 22.64 143.56 22.82 142.07 22.76 141.06 22.76 139.57 22.88 138.03 22.7 136.72 22.7 136.42 22.88 135.35 22.94 133.45 22.94 132.38 22.76 131.07 22.7 130.6"/><path class="cls-1" d="M51.91,119.55H12.48a5.74,5.74,0,0,0-5.75,5.74v39.44a5.74,5.74,0,0,0,5.75,5.74H51.91a5.74,5.74,0,0,0,5.75-5.74V125.29A5.74,5.74,0,0,0,51.91,119.55Zm-13.16,8.79-1,.53-.95-.18-1.55.18-1.66-.06-1.67.06H29.6l-.48.42v3.63L29.06,134v3.21L28.82,139v6.18l1.43.42,1.31-.06h4l1.72.24.72,1.3.06,1.13-.54,1.49-.83.24-.83-.06H29.18l-.3.3-.06,1.48v9L30,161,31,161h5.41l1.73.53.17,1.78v1.37l-.47.36L36.67,165h-1l-1.61.18-1.18.06-1-.12-.83.12-1.31-.06H28.23l-.77.06-1.19-.12-1.07.06-1.07.12-1.91-.06L21.09,165l-1.36.18L18.48,165H17.17l-1.31-.42-.41-1.6-.06-1.25.06-2,.17-1.61-.06-1.36-.05-1v-1l-.06-.77.11-1.07-.11-1.43.11-1L15.45,149l.11-1.79-.05-1.3.17-.78V129.59l-.06-2.26-.23-1.49.83-1,1.84-.12h9.4l1.72.06,1.37-.06H32l2.08-.06,1.25.06h2l1.07.18.6.53.24,1.31Z"/><polygon class="cls-2" points="30.75 74.54 28.85 75.08 28.08 75.44 27.6 75.61 26.18 76.33 24.16 77.87 22.55 79.24 21.72 80.37 20.59 82.15 19.76 83.94 19.16 85.66 18.92 86.85 18.69 89.41 18.75 91.37 19.22 93.15 19.93 95.65 21.06 97.55 22.02 99.04 22.73 99.75 24.51 101.36 26.83 102.84 28.55 103.67 29.27 103.79 30.7 104.33 32.54 104.69 33.31 104.45 32.95 103.73 31.47 103.32 30.46 103.08 29.45 102.72 27.78 101.95 26.18 101 24.45 99.69 23.62 98.92 22.85 98.09 22.13 97.19 21.18 95.71 20.83 95.11 20.53 94.04 20.11 91.67 19.99 90.36 19.82 88.69 20.17 87.03 20.35 86.14 20.47 85.25 20.89 84.53 21.36 83.28 22.37 81.56 23.09 80.55 23.92 79.66 24.81 78.88 26.59 77.64 27.43 76.98 27.84 76.92 29.27 76.21 31.59 75.49 32.54 74.84 32.72 74.48 32.42 74.25 30.75 74.54"/><path class="cls-2" d="M51.91,64.21H12.48A5.74,5.74,0,0,0,6.73,70v39.44a5.74,5.74,0,0,0,5.75,5.74H51.91a5.74,5.74,0,0,0,5.75-5.74V70A5.74,5.74,0,0,0,51.91,64.21ZM37.65,79.42v1l-.89.41-2.2.24-1.25.24-2.44.83-1.07.6-1,.77-.83.89-.89,1.25-.48,1.66-.35,2.56L26.36,91l.71,2.2.59,1,.72.89.89.72,2,1.19,1.07.35,1.19.24,2,.3,1.37.12.47.77.06,1.9.06,2.5-.06,2.26v3.51l-.18.65-1.24.65-2.62-.11-2.73-.18-1.25-.18-1.19-.24-1.19-.36-2.32-.89-1.07-.53-1.07-.6-1-.65-1.84-1.37-.84-.71-.71-.83-1.31-1.79-.65-1-1.19-1.9-.48-1-.35-1-.72-2.44L13,92.14v-4l.12-1.31.18-1.25.29-1.31.78-2.31.41-1.08,1.07-2,.6-1,1-1.36,1.19-1.37.89-.89,1.78-1.43.83-.6L24.1,71l1.13-.54L26.3,70l1.18-.41,2.32-.71,2.68-.42,2.79-.36,1.67.18.41.42.06,1.42v2.32l.12,1.85.06.83v1l.12,1.6Z"/><polygon class="cls-3" points="23.6 43.68 23.12 42.09 22.88 40.98 22.47 40.35 22.27 38.69 21.96 37.54 21.5 36.06 21.25 34.65 21.07 33.53 20.58 32.18 20.4 31.25 20.19 30.01 19.8 28.57 19.22 26.64 18.99 25.53 17.93 21.57 17.38 19.75 17 18.55 16.59 18.42 16.27 18.38 16 18.51 16.09 19.78 16.62 21.3 16.9 22.58 17.35 24.49 18.06 26.89 18.6 29.14 18.86 30.12 19.42 31.75 19.67 32.92 19.98 34.31 20.32 35.57 20.67 36.4 20.7 37.44 21.05 38.52 21.42 39.9 21.89 41.43 22.34 43.34 23.39 47.25 23.7 47.96 24.41 47.84 24.54 46.69 24.04 45.29 23.6 43.68"/><path class="cls-3" d="M59.6,42.35,49.39,4.26a5.74,5.74,0,0,0-7-4.06L4.26,10.4a5.75,5.75,0,0,0-4.06,7L10.4,55.53a5.74,5.74,0,0,0,7,4.06l38.09-10.2A5.75,5.75,0,0,0,59.6,42.35ZM36.32,33.93l-1.85.93-2.07.31-3.61,1.21-.28.32.34,1.51,1,3.62.26,1.22,1.26,4.71.12,1.82-.79,1L29.49,51l-7.12,1.91-2.14.51L19,53.16l-.4-1.06L17.77,49l-.4-1.25L16.71,46l-.24-1.35-.66-2L15.18,40,14.62,38l-.52-1.71-.46-1.72-.5-1.65-.47-2-1.77-6.6-.39-1.93-.39-1.24-.34-1-.28-1L9.29,18l-.38-1.63.47-1.48.57-.4,1-.2,1.94-.58L14,13.5,15.76,13,17,12.77,19.91,12,21,11.57l.89-.12,1.19-.38,4-1.08,2.09-.5,1.63-.31L32,10.4l.12,2.06-1.55.85-2.22.47-2.15.7-2.18.58L23.46,17,24,19.32l.28,1,.43,2.29.23,1.1,1.22,4.54.61,2,.42,1.36,1.49,0,4.88-1.31,1.72,0,.73.66.36,1.14Z"/><path class="cls-4" d="M107.11,119.55H67.67a5.74,5.74,0,0,0-5.74,5.74v39.44a5.74,5.74,0,0,0,5.74,5.74h39.44a5.74,5.74,0,0,0,5.74-5.74V125.29A5.74,5.74,0,0,0,107.11,119.55Zm-13.4,7.54-.24,2.44.06,1.31.12,2L93.11,134l-1.3.17-1.43.18-1.79.12-1,.36-1.25,1-.47,1L86,138.5l.3,1.13.35,1.19.42,1.13.83,2.2.54,1.67.59,1.66.59,2.26.3,1.37.36,1.54.12,1.31-.06,1.31L89.9,158l-1,2.49-.77,1.07-.83,1-1,.84-2.2,1.3L83,165l-1.31.3-2.56.06-2.38.24-2-.18-1.07-.06h-1l-2.14-.12-1.25-.36-.29-.65v-2.92l-.06-1.24v-2.44l.06-2.14,1.07-.72h1.3l1.43,0,1.78-.12,1.07-.24,1.37-1.25.06-1.9-.18-1.07-.65-2.2-.71-2.26-.36-1.19-.36-1.13-.29-1.13L73.79,140l-.3-1.13-.35-1.25-.06-1.19L73,135.35l.06-1.07.47-2.14.36-1.07.48-.95,1.13-1.66,1.66-1.61,2.32-1.54,2.44-.9,3.68-1h1.07l1.37-.12,1.66-.11,1.07-.06h1l1.3.29.48,1.37.12,1.13Z"/><polygon class="cls-4" points="85.38 128.81 84.91 128.93 84.14 129.11 83.3 129.82 81.94 130.66 80.33 132.44 79.8 133.57 79.5 135.89 79.5 136.96 79.56 138.03 79.74 139.1 80.15 140.82 80.81 142.61 81.46 144.33 81.76 144.99 82 146.23 82.71 148.43 83.07 149.86 83.19 150.4 83.3 150.81 83.24 151.59 83.3 152.77 83.24 153.55 83.13 154.91 82.59 156.04 81.82 156.99 80.92 157.94 78.9 158.72 77.83 159.07 75.87 159.67 75.52 160.62 77.12 160.5 78.67 160.03 78.96 159.91 81.1 159.19 82.83 157.77 83.66 156.7 83.6 156.46 84.25 155.45 84.55 153.49 84.43 151.64 84.19 149.38 83.72 148.02 83.42 146.77 83.13 145.64 82.53 144.15 82.11 142.61 81.52 141.36 81.34 140.23 80.92 139.1 80.69 137.44 80.57 135.65 80.45 135.18 80.69 134.88 80.81 134.22 81.16 133.51 81.58 132.86 83.3 131.13 85.68 129.82 86.99 129.47 88.48 129.23 88.48 128.46 86.75 128.28 85.38 128.81"/></g></g></g></svg>